<svg width="16" height="16" viewBox="0 0 16 16" fill="none" xmlns="http://www.w3.org/2000/svg">
<path fill-rule="evenodd" clip-rule="evenodd" d="M8 0C3.58172 0 0 3.58172 0 8C0 12.4183 3.58172 16 8 16C12.4183 16 16 12.4183 16 8C16 3.58172 12.4183 0 8 0ZM9.38188 4.65661V7.96041C9.38188 8.81181 8.80348 9.45036 7.97985 9.45036C7.15621 9.45036 6.57782 8.81181 6.57782 7.96041V4.65661C6.57782 3.80059 7.15621 3.16666 7.97985 3.16666C8.80348 3.16666 9.38188 3.80059 9.38188 4.65661ZM5.47192 12.4071C5.47192 12.222 5.63387 12.0555 5.81896 12.0555H7.62818V11.0421C5.94852 10.894 4.83337 9.64933 4.83337 7.95579V6.8684C4.83337 6.68794 4.99532 6.53062 5.17578 6.53062C5.35624 6.53062 5.51357 6.68794 5.51357 6.8684V7.95579C5.51357 9.36707 6.53154 10.4036 7.97985 10.4036C9.42815 10.4036 10.4461 9.36707 10.4461 7.95579V6.8684C10.4461 6.68794 10.6034 6.53062 10.7839 6.53062C10.9644 6.53062 11.1263 6.68794 11.1263 6.8684V7.95579C11.1263 9.64933 10.0112 10.894 8.32688 11.0421V12.0555H10.1407C10.3258 12.0555 10.4878 12.222 10.4878 12.4071C10.4878 12.5922 10.3258 12.7542 10.1407 12.7542H5.81896C5.63387 12.7542 5.47192 12.5922 5.47192 12.4071Z" fill="black"/>
</svg>
